<?xml version="1.0" encoding="UTF-8" standalone="no"?>
<svg width="2022px" height="1347px" viewBox="0 0 2022 1347" version="1.1" xmlns="http://www.w3.org/2000/svg" xmlns:xlink="http://www.w3.org/1999/xlink">
    <!-- Generator: Sketch 3.6.1 (26313) - http://www.bohemiancoding.com/sketch -->
    <title>o2</title>
    <desc>Created with Sketch.</desc>
    <defs></defs>
    <g id="Page-1" stroke="none" stroke-width="1" fill="none" fill-rule="evenodd">
        <g id="o2" fill="#FFFFFF">
            <g id="logo" transform="translate(840.000000, 494.000000)">
                <g id="Layer_1">
                    <path d="M275.263784,146.269682 C275.209865,163.763326 273.176351,181.059216 268.246622,197.93678 C262.793108,216.632161 254.189189,233.684661 241.348784,248.592288 C229.313023,262.550108 214.122988,273.518778 197.004324,280.613263 C186.039433,285.174322 174.527638,288.328603 162.750405,289.998983 C151.337257,291.657095 139.785084,292.187063 128.265405,291.581017 C109.424595,290.630275 91.2924324,286.796886 74.1462162,278.787839 C54.5853818,269.729191 37.934873,255.517064 26.0274324,237.715805 C15.9754054,222.891843 9.44351351,206.592331 5.46891892,189.250805 C1.62961331,172.130511 0.121974101,154.580752 0.985945946,137.066504 C1.75621622,119.169746 4.91432432,101.706525 11.192027,84.8517797 C16.5345968,70.1588375 24.461601,56.5123561 34.6082432,44.540339 C47.2321615,29.7402074 63.3352956,18.2187013 81.51,10.9829661 C92.4449206,6.6167836 103.902861,3.65663838 115.602162,2.17529661 C126.979467,0.691714907 138.481379,0.370567287 149.925405,1.21694915 C168.820135,2.58601695 186.898378,7.00506356 203.844324,15.5617373 C222.225527,24.7937513 237.917742,38.5034457 249.436622,55.3940042 C260.220405,71.0013771 267.152838,88.2212076 271.165946,106.619958 C273.960173,119.65438 275.333938,132.946615 275.263784,146.269682 L275.263784,146.269682 Z M222.970135,146.140381 C223.012211,137.056284 222.100995,127.992327 220.251081,119.093686 C217.532027,106.163602 212.933514,93.8800212 205.615946,82.7373305 C195.055541,66.6659958 180.736216,55.4016102 161.980135,49.9709746 C150.316295,46.6470356 138.0819,45.7432497 126.047027,47.3165042 C116.174865,48.4662164 106.634645,51.5511724 97.9860811,56.3903814 C84.9993243,63.6920763 75.2168919,74.1122034 67.8993243,86.8521398 C58.6560811,103.014746 54.2578378,120.554025 53.2641892,138.983199 C52.6573279,150.056303 53.4151779,161.161198 55.5210811,172.053792 C57.8318919,184.223284 61.8141892,195.784301 68.0918919,206.531483 C74.7547297,217.940381 83.4972973,227.409767 94.9358108,234.315953 C104.858807,240.23145 116.018583,243.831802 127.564459,244.842564 C138.092624,245.937494 148.73159,245.310465 159.053108,242.986716 C173.449117,239.845006 186.554679,232.498659 196.665405,221.903072 C204.992027,213.217097 210.907703,203.070784 215.151892,191.920487 C220.67473,177.149767 222.916216,161.816208 222.970135,146.140381 L222.970135,146.140381 Z" id="Shape"></path>
                    <path d="M266.767703,267.789661 C266.582838,266.032691 266.39027,264.283326 266.220811,262.541568 C265.774054,257.924767 265.350405,253.30036 264.872838,248.683559 C264.744429,248.227949 265.012916,247.755502 265.473649,247.626335 C277.197162,242.302182 289.429054,239.305445 302.385,239.579258 C308.785946,239.708559 314.994324,240.841843 320.755946,243.754915 C329.159595,248.006631 334.081622,254.897606 336.161351,263.849788 C338.526081,273.958072 337.247432,283.670847 332.787568,293.03375 C328.782162,301.506758 323.236216,308.907331 317.027838,315.965636 C309.825811,324.172436 301.884324,331.671886 293.981351,339.194153 C293.688649,339.475572 293.380541,339.74178 292.872162,340.205742 L294.197027,340.205742 L340.836892,340.205742 C341.707297,340.205742 341.984595,340.35786 341.976892,341.29339 C341.922973,346.853326 341.930676,352.405657 341.976892,357.965593 C341.976892,358.779428 341.745811,358.96197 340.952432,358.96197 L263.832973,358.96197 C262.977973,358.96197 262.847027,358.695763 262.847027,357.942775 C262.877838,351.908736 262.877838,345.877232 262.847027,339.848263 C262.814474,339.245535 263.074821,338.663582 263.547973,338.281441 C271.712838,330.97214 279.908514,323.708475 287.580405,315.889576 C294.705405,308.633517 301.522297,301.11125 307.02973,292.54697 C309.848919,288.158347 312.329189,283.602394 313.361351,278.437966 C315.263919,268.907733 310.534459,261.529979 301.037027,259.065657 C295.375541,257.597712 289.798784,258.305064 284.275946,259.757797 C278.435864,261.403849 272.890451,263.936444 267.838378,267.264852 C267.533084,267.527726 267.164335,267.708475 266.767703,267.789661 L266.767703,267.789661 Z" id="Shape"></path>
                </g>
            </g>
        </g>
    </g>
</svg>